<?xml version="1.0" encoding="utf-8"?>
<svg viewBox="1062.599853515625 365.70001220703125 280.000244140625 187.5999755859375" width="280.000244140625" height="187.5999755859375" xmlns="http://www.w3.org/2000/svg"><g transform="matrix(1, 0, 0, 1, 0, 0)"><g transform="matrix(1, 0, 0, 1, 0, 0)">
			<path class="st6" d="M1167.3,497.2c-20.8,0-37.6-16.8-37.6-37.6c0-20.8,16.8-37.6,37.6-37.6c11.1,0,21.1,4.8,28,12.5&#10;&#9;&#9;&#9;&#9;c-8.3-13.1-23-21.9-39.7-21.9c-26,0-47,21-47,47c0,26,21,47,47,47c16.7,0,31.4-8.7,39.7-21.9&#10;&#9;&#9;&#9;&#9;C1188.4,492.3,1178.4,497.2,1167.3,497.2z" style="fill: rgb(255, 255, 255);"/>
		</g><path class="st17" d="M1318.8,365.7h-232.4c-13.1,0-23.8,10.7-23.8,23.8v140c0,13.1,10.7,23.8,23.8,23.8h232.4&#10;&#9;&#9;&#9;&#9;c13.1,0,23.8-10.7,23.8-23.8v-140C1342.6,376.4,1331.9,365.7,1318.8,365.7z M1155.6,506.6c-26,0-47-21-47-47c0-26,21-47,47-47&#10;&#9;&#9;&#9;&#9;c16.7,0,31.4,8.7,39.7,21.9c-6.9-7.6-16.9-12.5-28-12.5c-20.8,0-37.6,16.8-37.6,37.6c0,20.8,16.8,37.6,37.6,37.6&#10;&#9;&#9;&#9;&#9;c11.1,0,21.1-4.8,27.9-12.5C1186.9,497.8,1172.3,506.6,1155.6,506.6z M1237.8,473.4l-16.2-5.3l-10,13.8v-17.1l-6.7-2.2l-9.5-3.1&#10;&#9;&#9;&#9;&#9;l9.5-3.1l6.7-2.2v-17.1l10,13.8l16.2-5.3l-10,13.8L1237.8,473.4z" style="fill: rgb(226, 45, 52);" transform="matrix(1, 0, 0, 1, 0, 0)"/><path d="M 1237.800048828125 445.70001220703125 L 1221.5 451 L 1211.5 437.20001220703125 L 1211.5 454.29998779296875 L 1204.800048828125 456.5 L 1195.300048828125 459.6000061035156 L 1204.800048828125 462.6000061035156 L 1211.5 464.79998779296875 L 1211.5 481.8999938964844 L 1221.5 468.1000061035156 L 1237.800048828125 473.3999938964844 L 1227.800048828125 459.6000061035156 Z" class="st6" style="fill: rgb(255, 255, 255);" transform="matrix(1, 0, 0, 1, 0, 0)"/></g></svg>